<?xml version="1.0" encoding="UTF-8"?>
<svg id="Layer_1" data-name="Layer 1" xmlns="http://www.w3.org/2000/svg" viewBox="0 0 148.29 145.77">
  <defs>
    <style>
      .cls-1 {
        fill: #b92028;
      }
    </style>
  </defs>
  <path class="cls-1" d="M130.63,63.99c-1.49-8.57-5.11-16.5-10.25-23.52-11.43-15.33-30.96-25.45-53.21-25.67-.25,0-.51,0-.76,0-.31,0-.63,0-.94,0h-.29c-4.7.07-9.08.61-13.49,1.45-1.1.32-2.16.67-3.18,1.03C13.68,29.48,17,61.82,17,61.82c0,0,11.53-21.19,49.11-21.19.23,0,.46,0,.69,0,.23,0,.46.01.69.02,0,0,.03,0,.08,0,1.79.06,3.54.24,5.26.53,1.24.21,2.45.47,3.64.79.02,0,.03,0,.05.01,3.73,1,7.21,2.53,10.33,4.49,9.29,5.81,15.37,15.41,15.37,26.29v.16c0,17.44-15.52,31.65-34.83,32.14h-15.66v-43.14h0c-.53.09-1.05.18-1.56.28-.04,0-.08.02-.12.02-13.63,2.62-22.24,8.29-27.24,12.88v55.8h0s.71,0,1.94,0h0s0,0,0,0h.19c.52,0,1.12,0,1.79,0,.31,0,.63,0,.97,0h.14s0,0,0,0c8.68.03,26.37.08,34.98.05.71,0,1.36,0,1.94-.01,1.24,0,2.15-.02,2.62-.03.22,0,.34-.01.37-.02.5,0,1,0,1.5-.02,3.83-.1,7.64-.56,11.31-1.27,16.42-3.39,30.5-12.28,39.53-24.55.99-1.3,1.93-2.63,2.79-4-.36.72-.74,1.43-1.13,2.14,6.18-8.81,9.64-19.12,9.64-30.27v-.16c0-2.99-.26-5.91-.75-8.77Z"/>
</svg>