<?xml version="1.0" standalone="no"?>
<!DOCTYPE svg PUBLIC "-//W3C//DTD SVG 20010904//EN"
 "http://www.w3.org/TR/2001/REC-SVG-20010904/DTD/svg10.dtd">
<svg version="1.0" xmlns="http://www.w3.org/2000/svg"
 width="1024.000000pt" height="1024.000000pt" viewBox="0 0 1024.000000 1024.000000"
 preserveAspectRatio="xMidYMid meet">

<g transform="translate(0.000000,1024.000000) scale(0.100000,-0.100000)"
fill="#000000" stroke="none">
<path d="M5381 8944 c-46 -8 -123 -27 -172 -44 -473 -158 -822 -565 -935
-1090 -26 -120 -26 -410 0 -530 35 -164 101 -322 194 -465 62 -97 106 -150
259 -307 190 -196 258 -308 283 -465 31 -192 -43 -360 -264 -607 -262 -293
-369 -482 -423 -753 -26 -131 -24 -415 4 -543 86 -396 367 -750 738 -931 118
-57 198 -86 266 -95 56 -7 61 1 23 37 -14 13 -46 51 -71 83 -215 287 -289 649
-197 971 57 199 141 323 367 539 320 306 453 493 543 761 55 167 77 321 71
500 -11 276 -80 495 -230 723 -80 122 -139 193 -301 361 -257 267 -363 456
-402 714 -65 423 183 850 629 1087 26 14 47 28 47 32 0 35 -274 49 -429 22z"/>
<path d="M3640 7749 c-90 -14 -259 -72 -338 -116 -86 -48 -193 -137 -264 -221
-243 -284 -302 -687 -148 -1019 55 -119 98 -178 227 -315 169 -179 211 -251
228 -389 8 -64 -13 -166 -49 -237 -34 -67 -100 -153 -194 -255 -151 -163 -230
-300 -274 -473 -31 -123 -31 -380 0 -496 96 -357 375 -650 729 -766 71 -24
173 -38 173 -25 0 5 -25 33 -56 63 -117 115 -217 299 -250 461 -24 120 -16
278 21 379 47 128 88 183 295 395 249 254 331 374 394 573 139 442 16 896
-338 1247 -188 186 -241 263 -276 400 -37 146 -25 255 47 405 40 82 58 107
137 185 55 54 117 104 155 125 36 19 66 41 69 47 10 32 -164 51 -288 32z"/>
<path d="M7103 7746 c-633 -120 -990 -786 -723 -1345 55 -115 115 -196 241
-327 176 -182 227 -285 217 -436 -10 -136 -65 -237 -219 -404 -125 -134 -183
-213 -235 -319 -64 -132 -85 -223 -91 -390 -5 -125 -2 -152 20 -253 79 -348
324 -634 670 -781 88 -38 220 -71 233 -58 3 3 -27 44 -68 90 -84 97 -126 163
-173 274 -102 237 -83 486 52 690 21 32 119 142 219 244 196 201 284 319 347
464 158 359 113 789 -116 1132 -28 43 -119 148 -202 233 -83 85 -165 176 -183
202 -138 201 -147 429 -25 638 55 93 171 208 271 265 45 26 82 51 82 55 0 31
-202 48 -317 26z"/>
<path d="M5486 4540 c-40 -13 -72 -44 -121 -120 -159 -243 -192 -578 -85 -842
44 -107 105 -207 187 -304 42 -49 84 -102 94 -119 28 -44 25 -107 -6 -144 -37
-44 -82 -55 -194 -48 -345 21 -741 269 -966 607 -177 264 -265 540 -265 828 0
156 14 148 -231 136 l-182 -9 -33 -39 c-19 -21 -47 -73 -63 -115 -76 -201 -64
-387 36 -571 42 -78 74 -119 170 -222 83 -90 102 -134 84 -191 -31 -93 -139
-126 -300 -92 -228 48 -453 168 -617 331 -186 184 -297 403 -343 673 -11 68
-23 127 -27 132 -8 14 -63 11 -239 -11 -749 -95 -1357 -245 -1446 -358 -93
-119 163 -227 751 -316 91 -14 278 -39 415 -55 138 -17 266 -35 286 -40 47
-14 115 -74 140 -124 16 -31 20 -53 17 -94 -9 -104 -66 -146 -307 -226 -264
-89 -408 -163 -462 -238 -69 -97 -11 -211 156 -304 219 -121 688 -256 1180
-339 719 -121 1715 -184 2480 -157 1066 37 2003 184 2600 406 142 53 249 112
317 173 178 164 56 301 -405 458 -93 31 -187 69 -209 85 -110 73 -117 200 -16
296 62 59 106 71 471 124 379 54 439 65 642 115 148 37 272 88 318 131 77 75
-10 156 -243 227 -360 108 -781 184 -1515 271 -22 2 -107 9 -189 15 -170 13
-181 10 -217 -62 -68 -133 -92 -289 -66 -415 32 -149 90 -257 209 -391 93
-104 116 -155 99 -212 -33 -109 -159 -135 -368 -74 -397 115 -730 440 -848
829 -31 101 -55 240 -55 315 0 41 -5 61 -16 71 -13 11 -78 14 -303 16 -157 1
-299 -2 -315 -7z"/>
<path d="M8013 3525 c-56 -24 -70 -79 -29 -120 13 -13 55 -33 97 -45 319 -92
476 -157 602 -250 96 -71 154 -159 156 -235 1 -43 -41 -126 -89 -178 -114
-124 -374 -255 -700 -352 -776 -230 -2136 -374 -3190 -336 -755 27 -1357 85
-1840 176 -41 8 -127 24 -190 35 -718 134 -1228 359 -1306 577 -34 98 -1 188
103 282 111 100 270 173 545 251 190 54 218 70 218 126 0 49 -37 74 -111 74
-129 0 -555 -97 -819 -187 -455 -154 -732 -338 -834 -553 -29 -60 -31 -73 -31
-171 0 -106 0 -107 45 -195 36 -71 63 -107 135 -179 113 -114 232 -193 450
-300 331 -163 769 -299 1350 -420 556 -115 1082 -181 1825 -227 277 -17 1311
-17 1570 0 596 40 908 72 1354 143 750 118 1386 294 1801 499 203 100 326 182
440 292 259 249 269 494 30 728 -245 241 -813 467 -1419 565 -115 18 -122 18
-163 0z"/>
</g>
</svg>
